# xmcd
#
# Track frame offsets:
#	150
#	18825
#	35775
#	53700
#	69825
#	87675
#	113925
#	132075
#	151650
#	169050
#	187950
#	205575
#	221700
#	237600
#	267375
#	283350
#
# Disc length: 4002 seconds
#
# Revision: 0
# Processed by: cddbd v1.5.2PL0 Copyright (c) Steve Scherf et al.
# Submitted via: EasyCDDAExtractor 16.0.6.1
#
DISCID=e90fa010
DTITLE=Various Artists  - Hit Box 5 Cd2
DYEAR=1994
DGENRE=Dance
TTITLE0=Another day
TTITLE1=Light my fire
TTITLE2=The reason is you
TTITLE3=Good fun
TTITLE4=Tossin'and turnin'
TTITLE5=Don't hold back
TTITLE6=Let the dream come true
TTITLE7=don't tell me all your dreams
TTITLE8=Come into my life 
TTITLE9=Waririor
TTITLE10=Movin'
TTITLE11=Watching you watching me
TTITLE12=Higher and higher
TTITLE13=Sister golden hair
TTITLE14=I feel so good
TTITLE15=Hear this!
EXTD=
EXTT0=
EXTT1=
EXTT2=
EXTT3=
EXTT4=
EXTT5=
EXTT6=
EXTT7=
EXTT8=
EXTT9=
EXTT10=
EXTT11=
EXTT12=
EXTT13=
EXTT14=
EXTT15=
PLAYORDER=
